# xmcd
#
# Track frame offsets:
# 150
# 14267
# 30860
# 49502
# 64904
# 80500
# 94058
# 112857
# 130408
# 146200
# 159893
#
# Disc length: 2406 seconds
#
# Revision: 0
# Processed by: cddbd v1.5.2PL0 Copyright (c) Steve Scherf et al.
# Submitted via: Axialis_AX_CDPlayer 2.6
#
DISCID=8309640b
DTITLE=Chris Knight - The Trailer Tapes
DYEAR=1900
DGENRE=
TTITLE0=Backwater Blues
TTITLE1=Something Changed
TTITLE2=Rita's Only Fault
TTITLE3=Spike Drivin' Blues
TTITLE4=Move On
TTITLE5=Hard Edges
TTITLE6=Here Comes The Rain
TTITLE7=Leaving Souvenirs
TTITLE8=House And 90 Acres
TTITLE9=If I Were You
TTITLE10=My Only Prayer
EXTD=www.chrisknight.net
EXTT0=
EXTT1=
EXTT2=
EXTT3=
EXTT4=
EXTT5=
EXTT6=
EXTT7=
EXTT8=
EXTT9=
EXTT10=
PLAYORDER=
